<?xml version="1.0" encoding="UTF-8"?>
<svg version="1.1" xmlns="http://www.w3.org/2000/svg" width="500" height="500">
<path d="M0 0 C165 0 330 0 500 0 C500 165 500 330 500 500 C335 500 170 500 0 500 C0 335 0 170 0 0 Z " fill="#FEFEFE" transform="translate(0,0)"/>
<path d="M0 0 C114.84 0 229.68 0 348 0 C348 31.68 348 63.36 348 96 C233.16 96 118.32 96 0 96 C0 64.32 0 32.64 0 0 Z " fill="#FDFDFD" transform="translate(76,202)"/>
<path d="M0 0 C54.45 0 108.9 0 165 0 C165 25.74 165 51.48 165 78 C110.55 78 56.1 78 0 78 C0 52.26 0 26.52 0 0 Z " fill="#020202" transform="translate(85,211)"/>
<path d="M0 0 C114.84 0 229.68 0 348 0 C348 31.68 348 63.36 348 96 C233.16 96 118.32 96 0 96 C0 64.32 0 32.64 0 0 Z M2 3 C2 32.7 2 62.4 2 93 C115.19 93 228.38 93 345 93 C345 63.3 345 33.6 345 3 C231.81 3 118.62 3 2 3 Z " fill="#020202" transform="translate(76,202)"/>
<path d="M0 0 C2.97 0 5.94 0 9 0 C10.65 3.96 12.3 7.92 14 12 C15.32 8.04 16.64 4.08 18 0 C20.97 0 23.94 0 27 0 C27 8.58 27 17.16 27 26 C25.35 26 23.7 26 22 26 C21.67 21.05 21.34 16.1 21 11 C19.35 15.95 17.7 20.9 16 26 C14.35 25.67 12.7 25.34 11 25 C9.35 20.05 7.7 15.1 6 10 C5.67 15.28 5.34 20.56 5 26 C3.35 26 1.7 26 0 26 C0 17.42 0 8.84 0 0 Z " fill="#040404" transform="translate(361,241)"/>
<path d="M0 0 C13 0 13 0 18 3 C19.55024464 6.10048928 19.28992015 8.57894218 19 12 C17 14.9375 17 14.9375 15 17 C15.66 18.11375 16.32 19.2275 17 20.375 C19 23.75 19 23.75 19 26 C17.02 26 15.04 26 13 26 C9 19.25 9 19.25 9 17 C8.01 17 7.02 17 6 17 C6 19.97 6 22.94 6 26 C4.02 26 2.04 26 0 26 C0 17.42 0 8.84 0 0 Z " fill="#0A0A0A" transform="translate(313,241)"/>
<path d="M0 0 C3.0625 2.375 3.0625 2.375 5 5 C5 5.99 5 6.98 5 8 C3.02 8 1.04 8 -1 8 C-1.33 7.34 -1.66 6.68 -2 6 C-4.31 6 -6.62 6 -9 6 C-10.22691067 8.45382134 -10.20175931 10.19984103 -10.25 12.9375 C-10.27578125 13.81277344 -10.3015625 14.68804687 -10.328125 15.58984375 C-10.19109486 18.04964597 -10.19109486 18.04964597 -8.64453125 19.8203125 C-6.99008209 21.25723721 -6.99008209 21.25723721 -4.4375 20.9375 C-1.85338976 20.22094782 -1.85338976 20.22094782 -0.6875 17.9375 C-0.460625 17.298125 -0.23375 16.65875 0 16 C-1.65 16 -3.3 16 -5 16 C-5 14.68 -5 13.36 -5 12 C-1.37 12 2.26 12 6 12 C6 16.62 6 21.24 6 26 C4.68 26 3.36 26 2 26 C1.67 25.01 1.34 24.02 1 23 C0.59523438 23.4846875 0.19046875 23.969375 -0.2265625 24.46875 C-2.95815269 26.82730364 -5.28619192 26.53369276 -8.7734375 26.42578125 C-12.33744585 25.74424281 -13.89353457 23.83056293 -16 21 C-17.81563534 15.55309398 -17.932322 9.35533979 -15.8125 4 C-11.08188617 -1.21998767 -6.6488592 -1.99586008 0 0 Z " fill="#0D0D0D" transform="translate(303,241)"/>
<path d="M0 0 C1.98 0 3.96 0 6 0 C15 20.80327869 15 20.80327869 15 26 C13.02 26 11.04 26 9 26 C8.67 24.02 8.34 22.04 8 20 C5.03 20.33 2.06 20.66 -1 21 C-1.99 23.475 -1.99 23.475 -3 26 C-4.98 26 -6.96 26 -9 26 C-7.68993083 22.04085791 -6.37653468 18.08282753 -5.0625 14.125 C-4.50272461 12.43310547 -4.50272461 12.43310547 -3.93164062 10.70703125 C-3.57392578 9.63066406 -3.21621094 8.55429688 -2.84765625 7.4453125 C-2.51773682 6.45031738 -2.18781738 5.45532227 -1.84790039 4.43017578 C-1 2 -1 2 0 0 Z " fill="#0E0E0E" transform="translate(343,241)"/>
<path d="M0 0 C5 0 5 0 6.66918945 1.65234375 C7.14573975 2.40644531 7.62229004 3.16054687 8.11328125 3.9375 C8.63857422 4.74960938 9.16386719 5.56171875 9.70507812 6.3984375 C10.23552734 7.25695312 10.76597656 8.11546875 11.3125 9 C11.86228516 9.85851562 12.41207031 10.71703125 12.97851562 11.6015625 C14.33476678 13.72439039 15.66946586 15.86095948 17 18 C17.33 12.06 17.66 6.12 18 0 C19.32 0 20.64 0 22 0 C22 8.58 22 17.16 22 26 C17 26 17 26 15.33081055 24.34765625 C14.85426025 23.59355469 14.37770996 22.83945312 13.88671875 22.0625 C13.36142578 21.25039063 12.83613281 20.43828125 12.29492188 19.6015625 C11.76447266 18.74304688 11.23402344 17.88453125 10.6875 17 C10.13771484 16.14148438 9.58792969 15.28296875 9.02148438 14.3984375 C7.66523322 12.27560961 6.33053414 10.13904052 5 8 C4.67 13.94 4.34 19.88 4 26 C2.68 26 1.36 26 0 26 C0 17.42 0 8.84 0 0 Z " fill="#DBDBDB" transform="translate(134,241)"/>
<path d="M0 0 C2.34643555 0.16577148 2.34643555 0.16577148 5 1 C6.39379883 3.31665039 6.39379883 3.31665039 7.45703125 6.34765625 C8.04194336 7.96704102 8.04194336 7.96704102 8.63867188 9.61914062 C9.02603516 10.75544922 9.41339844 11.89175781 9.8125 13.0625 C10.21919922 14.20267578 10.62589844 15.34285156 11.04492188 16.51757812 C12.04839879 19.33911909 13.03235106 22.1660128 14 25 C12.68 25.33 11.36 25.66 10 26 C8.74335022 23.09399739 8 21.20395416 8 18 C4.37 18.33 0.74 18.66 -3 19 C-3.99 21.31 -4.98 23.62 -6 26 C-6.99 26 -7.98 26 -9 26 C-6.56696874 17.12157015 -3.29163506 8.58594775 0 0 Z " fill="#E9E9E9" transform="translate(222,241)"/>
<path d="M0 0 C2.9375 1.75 2.9375 1.75 5 4 C5 5.32 5 6.64 5 8 C4.01 8 3.02 8 2 8 C1.54625 7.34 1.0925 6.68 0.625 6 C-0.84722033 3.72719397 -0.84722033 3.72719397 -3.5625 3.625 C-6.17528109 3.78103864 -6.17528109 3.78103864 -8 6 C-8.01607508 8.08253931 -8.01607508 8.08253931 -7 10 C-5.04755869 10.99515262 -5.04755869 10.99515262 -2.6875 11.5 C3.83383055 13.45535908 3.83383055 13.45535908 6 17 C6 20.68736006 5.78378446 22.98761174 3.5 25.9375 C-0.34694354 27.572451 -3.89623193 27.78862447 -8 27 C-11.0625 24.75 -11.0625 24.75 -13 22 C-13 20.68 -13 19.36 -13 18 C-11.68 18 -10.36 18 -9 18 C-8.34 19.65 -7.68 21.3 -7 23 C-4.66705225 23.04241723 -2.33297433 23.04092937 0 23 C1.29633621 21.93354885 1.29633621 21.93354885 1.0625 19.4375 C1.041875 18.633125 1.02125 17.82875 1 17 C0.31292969 16.81824219 -0.37414062 16.63648438 -1.08203125 16.44921875 C-1.98308594 16.19785156 -2.88414062 15.94648438 -3.8125 15.6875 C-4.70582031 15.44386719 -5.59914062 15.20023438 -6.51953125 14.94921875 C-9.10696058 13.95906863 -10.34794629 13.20273828 -12 11 C-12.5 7.5625 -12.5 7.5625 -12 4 C-8.45552524 -0.18892472 -5.33665143 -0.76237878 0 0 Z " fill="#E4E4E4" transform="translate(176,240)"/>
<path d="M0 0 C5.28 0 10.56 0 16 0 C16 0.99 16 1.98 16 3 C12.04 3 8.08 3 4 3 C4 5.64 4 8.28 4 11 C7.63 11 11.26 11 15 11 C15 11.99 15 12.98 15 14 C11.37 14 7.74 14 4 14 C4 17.96 4 21.92 4 26 C2.68 26 1.36 26 0 26 C0 17.42 0 8.84 0 0 Z " fill="#DCDCDC" transform="translate(100,241)"/>
<path d="M0 0 C6.27 0 12.54 0 19 0 C19 0.99 19 1.98 19 3 C16.36 3 13.72 3 11 3 C11 10.59 11 18.18 11 26 C10.01 26 9.02 26 8 26 C8 18.41 8 10.82 8 3 C5.36 3 2.72 3 0 3 C0 2.01 0 1.02 0 0 Z " fill="#F5F5F5" transform="translate(188,241)"/>
<path d="M0 0 C0.99 0 1.98 0 3 0 C3 8.58 3 17.16 3 26 C2.01 26 1.02 26 0 26 C0 17.42 0 8.84 0 0 Z " fill="#F9F9F9" transform="translate(123,241)"/>
<path d="M0 0 C2.78633115 4.17949673 4 6.93375326 4 12 C1.36 12 -1.28 12 -4 12 C-3.52494322 10.18641846 -3.04483958 8.37415821 -2.5625 6.5625 C-2.29566406 5.55316406 -2.02882812 4.54382813 -1.75390625 3.50390625 C-1 1 -1 1 0 0 Z " fill="#202020" transform="translate(224,245)"/>
<path d="M0 0 C5.75 -0.125 5.75 -0.125 8 1 C8 2.65 8 4.3 8 6 C5.29120665 7.35439668 2.99066732 7.06501451 0 7 C0 4.69 0 2.38 0 0 Z " fill="#EBEBEB" transform="translate(318,246)"/>
<path d="M0 0 C2.1519437 3.22791555 2.20086443 4.28400809 2 8 C0.68 8 -0.64 8 -2 8 C-1.125 1.125 -1.125 1.125 0 0 Z " fill="#D8D8D8" transform="translate(346,248)"/>
</svg>
